<svg fill="none" height="52" viewBox="0 0 176 52" width="176" xmlns="http://www.w3.org/2000/svg"><g fill="#fff"><path d="m7.76534 23.3826 2.64536-1.3088 4.1813-6.2819 1.28-.5234 1.3654 6.3691-1.792.2617-1.3654-2.6174-1.024 4.1007h4.5227l4.6933 1.2214 1.8774-1.2214 3.1573 3.3154 1.3653-6.1074 2.2187 2.2685 1.3653-1.9195 2.2187-.6107 3.2427-3.0537.512-1.4833 2.6453.4363 1.1094 1.4832-1.9627 4.1879 4.864-2.5302v-1.2215l1.8773-.4362 2.048 2.094 2.048-2.5302v-1.745l3.328-2.3557 1.3654-2.0067h2.1333l3.7547-7.76512 3.2427-3.40268 1.1946 1.91946-1.8773 2.44296.6827 1.57047 1.792.34899 1.4506 6.45642v5.4093l2.56 3.5772 1.28 4.9732-4.4373-2.8792-1.9627-8.2886-1.1947.2617-.1706 5.5839-3.2427 5.3222-.9387 8.1141 2.2187.5235.9387-1.1343 2.1333 2.443 1.6213 7.3289-.1706 4.7114h-2.048l-.768-6.6309-1.4507 2.0067-3.1573-.698-2.56-2.1812-2.9014 1.047.1707 4.7114-2.304.6107-3.4133 2.6175-4.096-.5235-1.6214-.9597-2.56.4362.8534 1.047-2.048 1.2215-1.6214-.7853-3.072 1.396-4.6933-2.3557-1.792-4.1879-1.536.1745-1.792-1.4832-.0854-1.1343-5.7173-.6107-.9387 3.1409-3.584-1.6577-1.792-3.0537h-3.83999l-.42667 4.8859-2.21867.698-1.10933 4.4497-.85334-.7853-3.584-9.3355 4.26667-2.094-.68267-4.1007-.68266-4.1879 1.87733-2.7047-.59733-1.6577 2.56-2.7919zm56.74676 10.2953 3.9253 5.9328 1.28-.5235-1.6213-2.4429-3.584-3.8389zm-40.1067-12.0403v-1.745l2.9866-2.1812 2.56-1.3087h-2.9866l-2.6454 1.5705-1.6213 1.4832v2.1812z"/><path d="m89.8314 41.0004h4.7232v-5.1818h2.6164c3.967 0 6.626-2.3437 6.626-6.1022 0-3.716-2.591-6.1705-6.4561-6.1705h-7.5095zm4.7232-8.8636v-4.8068h1.665c1.6565 0 2.6504.8864 2.6504 2.3864 0 1.4914-.9939 2.4204-2.6504 2.4204z"/><path d="m111.604 41.2391c4.247 0 6.762-2.7273 6.762-6.75s-2.515-6.75-6.762-6.75c-4.248 0-6.762 2.7273-6.762 6.75s2.514 6.75 6.762 6.75zm.034-3.4773c-1.257 0-2.005-1.2528-2.005-3.3068s.748-3.3068 2.005-3.3068c1.189 0 1.937 1.2528 1.937 3.3068s-.748 3.3068-1.937 3.3068z"/><path d="m126.555 41.2391c3.865 0 6.235-2.2245 6.286-5.6932h-4.349c-.102 1.3722-.841 2.1136-1.869 2.1136-1.232 0-2.039-1.0568-2.039-3.2045s.807-3.2046 2.039-3.2046c1.036 0 1.742.7415 1.869 2.1137h4.349c-.025-3.4091-2.446-5.625-6.286-5.625-4.247 0-6.762 2.7273-6.762 6.75s2.515 6.75 6.762 6.75z"/><path d="m141.062 41.2391c3.866 0 6.236-2.2245 6.287-5.6932h-4.35c-.102 1.3722-.841 2.1136-1.869 2.1136-1.231 0-2.038-1.0568-2.038-3.2045s.807-3.2046 2.038-3.2046c1.037 0 1.742.7415 1.869 2.1137h4.35c-.026-3.4091-2.447-5.625-6.287-5.625-4.247 0-6.762 2.7273-6.762 6.75s2.515 6.75 6.762 6.75z"/><path d="m153.701 35.0004v-7.0909h-4.418v13.0909h4.418l3.636-7.125v7.125h4.417v-13.0909h-4.417z"/><path d="m171.651 41.0004h4.349v-13.0909h-6.116c-3.764 0-6.142 1.9091-6.117 4.5682-.017 1.4915.875 2.7273 2.438 3.4602l-2.574 5.0625h4.316l2.2-4.3295h1.504zm0-7.159h-1.665c-1.249 0-1.827-.6137-1.801-1.1932-.026-.5455.518-1.2273 1.699-1.2273h1.767z"/></g></svg>